<svg id="visual" viewBox="0 0 960 540" width="960" height="540" xmlns="http://www.w3.org/2000/svg" xmlns:xlink="http://www.w3.org/1999/xlink" version="1.1"><rect x="0" y="0" width="960" height="540" fill="#01113a"></rect><path d="M0 106L22.8 115.3C45.7 124.7 91.3 143.3 137 145.7C182.7 148 228.3 134 274 124.3C319.7 114.7 365.3 109.3 411.2 108C457 106.7 503 109.3 548.8 116.7C594.7 124 640.3 136 686 135.5C731.7 135 777.3 122 823 124.7C868.7 127.3 914.3 145.7 937.2 154.8L960 164L960 0L937.2 0C914.3 0 868.7 0 823 0C777.3 0 731.7 0 686 0C640.3 0 594.7 0 548.8 0C503 0 457 0 411.2 0C365.3 0 319.7 0 274 0C228.3 0 182.7 0 137 0C91.3 0 45.7 0 22.8 0L0 0Z" fill="#fa7268"></path><path d="M0 91L22.8 88.7C45.7 86.3 91.3 81.7 137 86.2C182.7 90.7 228.3 104.3 274 105.3C319.7 106.3 365.3 94.7 411.2 89C457 83.3 503 83.7 548.8 83.5C594.7 83.3 640.3 82.7 686 89.8C731.7 97 777.3 112 823 112.3C868.7 112.7 914.3 98.3 937.2 91.2L960 84L960 0L937.2 0C914.3 0 868.7 0 823 0C777.3 0 731.7 0 686 0C640.3 0 594.7 0 548.8 0C503 0 457 0 411.2 0C365.3 0 319.7 0 274 0C228.3 0 182.7 0 137 0C91.3 0 45.7 0 22.8 0L0 0Z" fill="#eb5967"></path><path d="M0 93L22.8 85.8C45.7 78.7 91.3 64.3 137 65.7C182.7 67 228.3 84 274 91C319.7 98 365.3 95 411.2 89.8C457 84.7 503 77.3 548.8 78.2C594.7 79 640.3 88 686 86.8C731.7 85.7 777.3 74.3 823 67.3C868.7 60.3 914.3 57.7 937.2 56.3L960 55L960 0L937.2 0C914.3 0 868.7 0 823 0C777.3 0 731.7 0 686 0C640.3 0 594.7 0 548.8 0C503 0 457 0 411.2 0C365.3 0 319.7 0 274 0C228.3 0 182.7 0 137 0C91.3 0 45.7 0 22.8 0L0 0Z" fill="#da3f67"></path><path d="M0 39L22.8 41.8C45.7 44.7 91.3 50.3 137 49.8C182.7 49.3 228.3 42.7 274 37.5C319.7 32.3 365.3 28.7 411.2 27C457 25.3 503 25.7 548.8 28.7C594.7 31.7 640.3 37.3 686 40C731.7 42.7 777.3 42.3 823 41.7C868.7 41 914.3 40 937.2 39.5L960 39L960 0L937.2 0C914.3 0 868.7 0 823 0C777.3 0 731.7 0 686 0C640.3 0 594.7 0 548.8 0C503 0 457 0 411.2 0C365.3 0 319.7 0 274 0C228.3 0 182.7 0 137 0C91.3 0 45.7 0 22.8 0L0 0Z" fill="#c62368"></path></svg>